<?xml version="1.0" encoding="UTF-8"?>
<svg version="1.1" viewBox="0 0 2048 757" width="762" height="282" xmlns="http://www.w3.org/2000/svg">
<path transform="translate(0)" d="m0 0h2048v757h-2048z" fill="#FDFFFF"/>
<path transform="translate(304,179)" d="m0 0h24l8 16 11 26 13 30 19 44 21 49 15 34 12 28 13 30 24 56 10 22 9 4 27 10 3 2v9h-146v-9l6-3 36-11h2l-5-13-14-33-12-28-13-31-131-1-3 9-17 43-16 41-4 10v2l36 12 7 3-1 9h-110l-1-1v-8l8-4 31-11 4-8 17-42 14-34 19-47 22-54 19-46 11-28 15-36 12-30z" fill="#A83C97"/>
<path transform="translate(1321,300)" d="m0 0h28l16 3 16 7 10 8 7 10 5 11 3 15 1 137 2 13 4 6 5 3 9 1 11-2 13-5h3v10l-7 8-12 9-14 7-15 4h-15l-13-4-11-8-6-9-4-10-3-13-7 14-8 10-9 8-12 7-12 4-6 1h-20l-16-4-16-8-10-9-7-11-4-13-1-5v-19l4-16 6-11 13-13 16-10 25-12 28-10 33-10 2-1v-35l-3-12-6-10-7-6-10-4-5-1h-20l-17 3-1 10-4 15-4 8-8 7-11 4h-14l-7-3-5-4-2-5 1-10 4-8 9-10 13-10 19-10 20-7 18-4z" fill="#A83C97"/>
<path transform="translate(589,300)" d="m0 0 2 1-2 23-1 55v44l1 48 3 13 5 8 9 6 9 3 6 1h25l17-4 15-6 4-3v-158l-32-13-4-4v-7l6-2 86-5v9l-2 25v166l3 5 21 11 10 4 1 7-8 3-71 15h-5l-1-4-3-33-11 10-14 10-14 8-12 5-14 3-7 1h-19l-15-3-16-8-9-8-6-10-5-12-4-18-1-10-1-145-31-12-6-4v-8l6-2z" fill="#A83C97"/>
<path transform="translate(1742,298)" d="m0 0h18l17 3 14 5 11 6 11 9 9 10 9 15 6 15 6 25 1 12-1 1-154 1v10l2 21 4 17 5 12 6 11 8 10 8 8 14 8 14 5 18 3h17l16-3 11-4 15-8 12-9 3 1 4 5-2 5-13 15-14 14-13 9-15 8-16 5-12 2h-25l-20-4-14-5-15-8-9-7-10-9-10-12-9-16-7-19-4-21-1-9v-17l2-19 5-21 8-19 8-14 9-12 8-8 10-8 15-9 16-6 14-3z" fill="#A83C97"/>
<path transform="translate(1092,298)" d="m0 0h18l18 3 16 6 11 7 10 9 8 9 8 14 5 11 5 17 3 17v8l-154 1v21l3 18 5 16 8 16 9 11 9 8 12 7 15 5 17 3h18l16-3 13-5 12-7 12-9 4 2 3 3-1 5-11 13-9 10-10 9-14 9-14 7-19 5-7 1h-24l-17-3-18-6-13-7-11-8-15-15-10-15-7-15-5-16-3-19v-31l3-19 6-20 10-21 10-14 9-10 16-12 10-6 17-6 13-3z" fill="#A83C97"/>
<path transform="translate(1533,263)" d="m0 0h5v41h80l-1 12-3 16-1 1-74 1v140l2 12 6 10 9 6 9 3 7 1h17l20-3 17-4v13l-15 10-19 11-16 7-15 4-7 1h-13l-15-3-12-5-11-8-7-8-6-12-3-12-1-8-1-146-19-14-10-7-2-3 1-5 20-14 22-15 30-20z" fill="#A83C97"/>
<path transform="translate(870,297)" d="m0 0 2 1 2 31v13l8-6 18-14 15-10 19-9 13-3h11l11 4 7 8 3 9v9l-2 9-6 9-8 6-9 3h-14l-21-6-5-1h-16l-15 5-7 4-1 159 11 3 26 8 2 2v8h-128v-9l35-12 1-3v-159l-2-4-14-9-19-10-2-2v-5l9-4 47-16 21-7z" fill="#A83C97"/>
<path transform="translate(298,251)" d="m0 0h2l16 38 15 35 19 45 7 16-1 1h-110l1-5 12-31 22-56 14-35z" fill="#FDFFFF"/>
<path transform="translate(1352,412)" d="m0 0h2v62l-3 12-7 11-8 7-11 5-3 1h-16l-10-3-8-6-5-6-4-10-1-5v-14l3-11 6-10 8-8 15-9 24-10z" fill="#FDFFFF"/>
<path transform="translate(1086,319)" d="m0 0h19l10 4 10 9 6 10 6 16 3 14v4l-8 1-81 3h-10l1-10 5-16 6-12 8-10 9-7 12-5z" fill="#FDFFFF"/>
<path transform="translate(1736,319)" d="m0 0h18l10 4 6 4 7 8 6 12 6 21 1 7-1 1-7 1-81 3h-10l-1-2 4-17 5-12 7-12 9-9 16-8z" fill="#FDFFFF"/>
</svg>
